<svg width="47" height="47" viewBox="0 0 47 47" fill="none" xmlns="http://www.w3.org/2000/svg">
<circle cx="23.5" cy="23.5" r="23.5" fill="#A9D773"/>
<circle cx="23.5" cy="23.5" r="23" stroke="black" stroke-opacity="0.4"/>
<path d="M14.75 21.9837L15.497 21.9197C15.4798 21.7276 15.3892 21.5496 15.2442 21.4225C15.0991 21.2954 14.9106 21.2291 14.718 21.2374C14.5253 21.2456 14.3432 21.3277 14.2095 21.4667C14.0758 21.6057 14.0008 21.7909 14 21.9837H14.75ZM31.986 23.8067L31.28 27.8867L32.759 28.1427L33.464 24.0627L31.986 23.8067ZM24.995 32.9997H20.346V34.4997H24.995V32.9997ZM19.435 32.1627L18.623 22.7697L17.128 22.8987L17.941 32.2917L19.435 32.1627ZM31.28 27.8867C30.773 30.8167 28.131 32.9997 24.995 32.9997V34.4997C28.821 34.4997 32.121 31.8307 32.759 28.1427L31.28 27.8867ZM25.005 16.8497L24.342 20.8947L25.822 21.1367L26.485 17.0927L25.005 16.8497ZM18.938 21.9957L20.377 20.7557L19.397 19.6197L17.96 20.8597L18.938 21.9957ZM22.994 16.7217L23.47 14.8877L22.018 14.5117L21.542 16.3447L22.994 16.7217ZM24.188 14.5277L24.333 14.5747L24.792 13.1467L24.647 13.0997L24.188 14.5277ZM22.273 18.5657C22.5852 17.9816 22.8272 17.3627 22.994 16.7217L21.542 16.3447C21.4042 16.871 21.2055 17.3794 20.95 17.8597L22.273 18.5657ZM24.333 14.5747C24.4755 14.6184 24.6047 14.6971 24.7088 14.8037C24.813 14.9103 24.8887 15.0413 24.929 15.1847L26.381 14.8087C26.2781 14.42 26.0784 14.0637 25.8005 13.7731C25.5227 13.4825 25.1757 13.267 24.792 13.1467L24.333 14.5747ZM23.47 14.8877C23.4902 14.8158 23.5257 14.7492 23.574 14.6922C23.6224 14.6353 23.6824 14.5894 23.75 14.5577L23.099 13.2067C22.567 13.4627 22.167 13.9367 22.018 14.5117L23.47 14.8877ZM23.75 14.5577C23.887 14.4927 24.0435 14.482 24.188 14.5277L24.647 13.0997C24.1363 12.9365 23.5824 12.9747 23.099 13.2067L23.75 14.5577ZM25.904 22.7337H31.084V21.2337H25.904V22.7337ZM16.469 33.1557L15.497 21.9197L14.003 22.0487L14.973 33.2847L16.469 33.1557ZM15.5 33.2627V21.9837H14V33.2627H15.5ZM14.973 33.2847C14.9699 33.2484 14.9755 33.2118 14.9873 33.1773C14.9992 33.1428 15.0181 33.1112 15.0428 33.0844C15.0675 33.0576 15.0976 33.0362 15.131 33.0216C15.1644 33.0071 15.2005 32.9996 15.237 32.9997V34.4997C15.963 34.4997 16.531 33.8777 16.469 33.1557L14.973 33.2847ZM26.485 17.0927C26.6107 16.3325 26.5753 15.5544 26.381 14.8087L24.929 15.1857C25.0708 15.7289 25.0967 16.2959 25.005 16.8497L26.485 17.0927ZM20.346 32.9997C20.117 32.9993 19.8965 32.9132 19.7279 32.7582C19.5592 32.6033 19.4547 32.3909 19.435 32.1627L17.941 32.2917C17.993 32.8939 18.2689 33.4547 18.7141 33.8634C19.1593 34.2722 19.7416 34.4992 20.346 34.4997V32.9997ZM20.377 20.7557C21.057 20.1697 21.789 19.4727 22.274 18.5657L20.95 17.8597C20.604 18.5087 20.053 19.0557 19.397 19.6197L20.377 20.7557ZM33.464 24.0627C33.5242 23.7157 33.5078 23.3597 33.416 23.0197C33.3241 22.6797 33.1591 22.3639 32.9323 22.0944C32.7056 21.8249 32.4227 21.6082 32.1034 21.4595C31.7841 21.3109 31.4362 21.2338 31.084 21.2337V22.7337C31.651 22.7337 32.084 23.2457 31.986 23.8067L33.464 24.0627ZM15.237 32.9997C15.383 32.9997 15.5 33.1177 15.5 33.2627H14C14 33.9447 14.553 34.4997 15.237 34.4997V32.9997ZM24.342 20.8947C24.3047 21.1213 24.3172 21.3533 24.3785 21.5746C24.4399 21.7958 24.5486 22.0011 24.6972 22.1762C24.8458 22.3512 25.0307 22.4919 25.2391 22.5883C25.4475 22.6848 25.6744 22.7337 25.904 22.7337V21.2337C25.8918 21.2338 25.8797 21.2321 25.8687 21.227C25.8576 21.2219 25.8478 21.2143 25.84 21.205C25.8321 21.1956 25.8265 21.1847 25.8234 21.1729C25.8203 21.1611 25.8198 21.1487 25.822 21.1367L24.342 20.8947ZM18.623 22.7697C18.6108 22.6249 18.6321 22.4793 18.687 22.3448C18.7419 22.2102 18.8279 22.0906 18.938 21.9957L17.958 20.8587C17.6681 21.1089 17.4418 21.4242 17.2975 21.7788C17.1532 22.1335 17.0951 22.5173 17.128 22.8987L18.623 22.7697Z" fill="black" fill-opacity="0.6"/>
</svg>
